<svg width="573" height="604" viewBox="0 0 573 604" fill="none" xmlns="http://www.w3.org/2000/svg">
<path fill-rule="evenodd" clip-rule="evenodd" d="M491.371 1.72193C488.551 2.69693 483.988 5.38193 481.233 7.68893C478.477 9.99593 475.534 11.8839 474.693 11.8839C471.457 11.8839 470 13.1509 470 15.9649C470 18.1319 469.276 19.2069 467.034 20.3659C463.493 22.1979 463.929 24.7199 467.926 25.5189L470.6 26.0539L466.944 36.7949C464.933 42.7029 462.998 49.0819 462.644 50.9709C461.123 59.0779 449.45 66.5709 419.774 78.4889C410.823 82.0839 401.612 86.1229 399.303 87.4649C390.307 92.6969 370.494 94.9639 334.301 94.9039C307.433 94.8589 304.679 94.6929 299.796 92.8239C294.873 90.9409 294.208 90.2729 290.59 83.5889C281.534 66.8549 266.94 50.1759 253.611 41.3259C250.525 39.2769 248 37.2149 248 36.7419C248 36.2699 247.663 35.9749 247.25 36.0849C246.838 36.1959 242.675 34.4549 238 32.2149C220.029 23.6059 207.637 20.8839 186.424 20.8839C169.79 20.8839 160.65 22.3519 146 27.3769L138.5 29.9489L129 27.3359C123.775 25.8989 117.475 24.1019 115 23.3429C102.027 19.3629 61.216 9.84493 52.682 8.81093C39.551 7.21793 37.751 8.78793 49.176 11.8709C77.736 19.5769 82.043 20.8409 78 20.3289C57.266 17.7049 47 17.1809 47 18.7489C47 19.2239 50.263 20.3899 54.25 21.3399C60.613 22.8549 119.15 39.8049 119.717 40.2969C119.837 40.3999 116.904 42.7529 113.201 45.5239C109.497 48.2959 103.493 53.8979 99.857 57.9739C77.925 82.5629 67.934 112.673 71.036 144.834C72.614 161.196 72.653 165.884 71.21 165.884C70.776 165.884 68.928 162.415 67.105 158.174C64.329 151.72 61.949 147.709 54.869 137.556C54.494 137.019 53.564 137.028 52.578 137.58C51.045 138.438 51.057 138.696 52.742 140.947C58.632 148.817 64.935 161.144 67.536 169.884L68.876 174.384L63.88 168.884C61.133 165.859 56.998 160.586 54.692 157.166C50.674 151.205 48.79 149.797 47.541 151.818C47.223 152.332 49.409 156.345 52.398 160.735C55.388 165.125 57.534 169.017 57.167 169.384C56.8 169.751 57.012 169.901 57.637 169.717C59.166 169.269 70.631 184.169 71.851 188.189C73.379 193.223 74.237 200.528 73.166 199.384C72.651 198.834 70.31 194.784 67.963 190.384C62.58 180.293 61.697 178.884 60.759 178.884C59.396 178.884 60.035 182.279 62.454 187.884C63.76 190.909 64.628 193.585 64.384 193.831C63.164 195.058 58.317 188.03 52.726 176.928C46.977 165.512 44.029 161.522 42.486 163.065C42.15 163.401 43.925 167.757 46.431 172.746C49.293 178.445 50.431 181.603 49.493 181.243C48.456 180.845 48 181.323 48 182.808C48 183.985 48.666 185.202 49.48 185.515C51.632 186.341 54.746 191.8 55.839 196.664C56.909 201.424 56.921 201.411 53.128 199.45C48.741 197.181 47.944 195.6 45.509 184.32C43.339 174.271 41.841 170.709 40.394 172.156C40.043 172.508 40.654 177.878 41.753 184.09C42.851 190.302 43.611 195.542 43.442 195.734C42.605 196.684 41 194.486 41 192.39C41 186.153 37.096 182.612 36.924 188.693C36.879 190.281 35.255 186.731 32.963 180.033C28.952 168.316 27.666 165.884 25.477 165.884C24.573 165.884 25.038 168.23 27.071 173.919C30.679 184.013 33.03 191.884 32.437 191.884C32.186 191.884 30.596 189.632 28.902 186.88C25.877 181.963 23.317 181.044 24.352 185.247C24.729 186.773 23.744 186.122 20.906 182.968C18.04 179.782 16.629 178.855 15.843 179.641C14.715 180.769 15.572 182.272 22.729 191.719C26.361 196.514 26.303 197.341 22.259 198.354C17.891 199.449 10 203.05 10 203.948C10 205.728 11.805 205.599 19.002 203.303C23.126 201.987 26.541 200.905 26.592 200.897C26.834 200.862 29.321 209.572 29.449 210.902C29.529 211.736 29.997 213.086 30.489 213.902C31.258 215.175 31.147 215.192 29.703 214.021C28.778 213.271 28.269 212.258 28.57 211.771C28.871 211.283 28.653 210.884 28.085 210.884C27.516 210.884 26.353 209.534 25.5 207.884C23.897 204.785 21 203.782 21 206.327C21 207.12 21.944 209.37 23.099 211.327L25.198 214.884H22.707C20.736 214.884 19.884 214.051 18.617 210.884C16.26 204.995 13.228 205.706 14.959 211.742C16.168 215.956 13.821 216.013 10.322 211.855C8.269 209.416 7.496 209.057 6.345 210.013C5.353 210.836 5.234 211.518 5.958 212.242C7.746 214.03 7.114 214.884 4 214.884H1V229.855V244.827L4.25 245.668C6.139 246.157 8.017 247.53 8.735 248.947C10.237 251.909 10.519 297.388 9.06 301.226C8.428 302.889 7.037 303.934 4.81 304.417C0.477001 305.357 0.0339994 306.21 0.0149994 313.634L0 319.884H197.607C381.791 319.884 395.17 319.997 394.573 321.554C392.904 325.903 392.078 332.171 392.636 336.243C393.187 340.264 392.682 341.913 387.791 352.058C375.467 377.623 365.455 390.184 352.395 396.466C344.528 400.25 341.53 400.644 338.223 398.327C334.347 395.613 335.357 392.45 341.25 388.839C344.137 387.07 348.125 384.344 350.11 382.78C352.096 381.217 354.008 380.15 354.36 380.411C354.712 380.671 354.79 380.599 354.533 380.25C354.276 379.902 355.738 377.711 357.783 375.382C362.944 369.502 368.744 359.428 370.735 352.884C371.656 349.859 372.43 344.135 372.455 340.164C372.514 330.71 370.593 328.411 362.728 328.525C355.708 328.626 352.037 330.685 342.66 339.78C333.421 348.741 329.753 353.564 323.946 364.384C318.123 375.233 314.064 379.975 307.869 383.168C304.994 384.649 302.448 385.665 302.209 385.426C301.97 385.188 302.542 382.831 303.479 380.188C304.417 377.546 305.429 371.213 305.729 366.114C306.2 358.12 306.028 356.573 304.482 354.864C303.497 353.775 301.739 352.884 300.577 352.884C297.156 352.884 291.281 357.55 288.285 362.646C285.685 367.069 285.497 368.148 285.453 378.884C285.398 392.325 285.106 393.598 279.467 405.072C273.964 416.267 270.632 420.646 267.736 420.487C263.714 420.266 264.858 411.203 271.538 390.384C277.342 372.293 278.808 363.298 276.352 360.838C274.942 359.426 268.051 358.993 267.263 360.267C266.948 360.776 267.211 360.872 267.845 360.479C269.602 359.394 269.224 361.001 267.178 363.32C263.4 367.601 256.327 385.871 249.993 407.714C248.082 414.305 247.121 415.826 240.474 422.784C231.584 432.088 225.129 435.881 216.912 436.626C212.086 437.063 210.594 436.827 208.984 435.369C207.893 434.382 207 433.196 207 432.735C207 432.273 210.712 429.495 215.25 426.562C233.546 414.732 246.167 395.08 246.4 378.058C246.499 370.826 246.452 370.688 242.765 367.308C237.373 362.366 232.567 362.958 222.638 369.789C220.227 371.448 217.9 372.485 217.467 372.095C217.034 371.704 216.981 371.91 217.349 372.554C217.718 373.199 216.921 374.588 215.573 375.648C207.856 381.718 198.319 395.986 192.977 409.453C187.881 422.299 177.348 438.06 172.681 439.824C167.85 441.649 165.285 436.162 167.941 429.681C174.62 413.383 180.043 398.525 180.605 394.982C181.493 389.39 179.733 387.884 172.309 387.884H167V380.039C167 373.709 166.647 371.874 165.171 370.539C162.091 367.752 158.364 368.507 153.619 372.881C148.401 377.691 145 386.727 145 395.783C145 401.326 143.071 408.104 141.156 409.288C140.023 409.988 136.854 401.957 137.687 400.496C138.035 399.884 137.964 399.706 137.529 400.099C137.094 400.492 135.796 400.154 134.646 399.349C131.623 397.231 123.647 397.513 118.962 399.903C113.188 402.849 106.192 410.381 100.287 420.009L95.104 428.462L87.055 429.635C80.97 430.522 76.88 431.903 70.288 435.297C65.492 437.766 61.457 439.675 61.321 439.538C60.414 438.631 70.396 412.587 77.67 396.884C80.345 391.109 86.463 378.896 91.267 369.744C98.475 356.01 100 352.32 100 348.616C100 343.584 98.663 341.946 95.034 342.536C82.603 344.558 65.662 373.533 49.934 419.676C47.186 427.738 43.374 440.106 41.463 447.16C38.279 458.911 37.562 460.498 32.912 466.086C27.148 473.012 25.987 475.478 26.032 480.699C26.065 484.567 28.125 488.372 29.508 487.118C29.954 486.715 29.991 487.284 29.591 488.384C27.145 495.104 21.974 513.591 20.639 520.384C14.866 549.78 15.52 583.181 22.122 596.123C25.768 603.27 34.763 605.988 42.544 602.296C54.616 596.568 66.166 574.857 73.086 544.884C75.814 533.065 76.968 501.519 75.034 491.589C72.193 476.997 67.698 467.851 60.974 462.98L56.979 460.086L61.634 457.003C68.001 452.785 76.595 449.615 82 449.489L86.5 449.384L86 454.384C85.725 457.134 85.5 464.109 85.5 469.884C85.5 479.232 85.775 480.875 88.004 484.857C90.946 490.109 93.884 491.849 99.849 491.869C111.583 491.909 121.588 481.097 130.372 458.884C132.438 453.659 137.664 442.859 141.984 434.884C146.305 426.909 150.991 417.764 152.397 414.561C153.811 411.342 155.407 409.017 155.966 409.363C156.547 409.722 156.736 409.36 156.41 408.51C155.895 407.167 160.509 403.007 161.414 403.999C161.608 404.211 160.411 407.758 158.754 411.881C152.692 426.969 151.435 445.937 155.916 454.72C158.437 459.661 160.505 460.895 166.184 460.849C172.526 460.796 176.035 458.411 184.934 448.101L190.358 441.817L194.497 446.326C199.776 452.076 204.163 453.884 212.834 453.884C218.714 453.884 220.746 453.373 226.616 450.416C230.402 448.509 237.197 443.785 241.716 439.919C249.753 433.044 249.958 432.939 251.083 435.137C253.876 440.59 260.443 442.368 268.026 439.725C276.334 436.829 288.523 422.214 295.509 406.772L298.5 400.161L306.565 399.584C311 399.267 315.05 398.867 315.565 398.696C316.079 398.524 316.615 398.72 316.756 399.131C316.897 399.542 318.545 402.768 320.419 406.301C322.294 409.833 323.528 413.097 323.163 413.554C322.799 414.01 322.899 414.06 323.387 413.664C323.875 413.267 325.454 413.783 326.896 414.81C336.134 421.388 347.359 419.315 360.712 408.566C374.232 397.682 385.794 382.646 396.115 362.523C402.69 349.704 407.334 342.884 408.616 344.166C408.888 344.438 407.747 348.873 406.081 354.022C398.579 377.204 397.956 394.735 404.545 397.263C408.262 398.689 417.773 397.824 423.56 395.532C430.985 392.592 438.88 388.915 441.5 387.177C458.952 375.596 463.692 372.616 464.706 372.586C465.369 372.567 465.71 372.224 465.463 371.824C465.216 371.425 468.084 368.617 471.837 365.585C475.589 362.554 483.591 355.347 489.619 349.571C499.679 339.932 500.597 339.281 500.793 341.658C501.3 347.784 506.173 350.983 512.317 349.223C520.939 346.755 518.29 332.929 509.145 332.669L506.054 332.581L508.045 329.983C509.14 328.553 511.265 325.706 512.768 323.655L515.5 319.927L543.75 319.905L572 319.884V314.932V309.979L565.812 309.682L559.624 309.384L563.163 306.967C568.574 303.271 572.32 296.61 572.812 289.809C573.607 278.813 567.737 272.262 548.404 262.571C544.501 260.614 539.942 257.865 538.273 256.46C532.42 251.535 533.767 243.832 540.812 241.935C548.089 239.975 553.682 243.365 559.472 253.246C561.716 257.075 562.697 257.884 565.095 257.884H568V236.384V214.884H558.5C552.752 214.884 549 214.484 549 213.871C549 213.314 551.025 211.874 553.5 210.672C557.817 208.574 559.549 205.884 556.583 205.884C555.804 205.884 553.066 206.784 550.5 207.884C544.27 210.555 544.044 210.425 548.612 206.8C550.751 205.103 552.893 203.019 553.374 202.168C554.131 200.826 553.613 200.715 549.496 201.332C546.882 201.724 544.118 202.285 543.354 202.579C542.242 203.005 542.16 202.594 542.943 200.534C544.306 196.95 542.251 195.913 539.885 198.99C538.873 200.307 538.034 201.722 538.022 202.134C537.975 203.735 536.206 202.779 535.71 200.884C534.773 197.298 533.001 198.752 532.969 203.134C532.944 206.48 532.412 207.766 530.469 209.181C527.452 211.376 527.416 210.831 530.144 204.25C533.347 196.522 532.061 194.862 526.958 200.138C524.169 203.021 523.384 203.515 524.511 201.678C525.425 200.19 525.902 198.534 525.571 197.998C525.24 197.463 527.646 194.965 530.917 192.448C537.319 187.522 541 183.433 541 181.249C541 178.836 539.186 179.767 533.433 185.134C530.338 188.022 527.178 190.742 526.41 191.18C524.351 192.353 525.91 188.705 534.068 173.26C537.881 166.041 541 159.629 541 159.01C541 156.489 538.739 158.171 535.824 162.86C534.123 165.597 532.347 167.598 531.877 167.308C531.407 167.018 531.242 167.366 531.51 168.082C531.779 168.798 531.063 170.734 529.92 172.384L527.842 175.384L528.493 169.634C528.933 165.743 528.79 163.884 528.051 163.884C526.407 163.884 525.289 167.125 522.081 181.188C519.431 192.801 516.673 199.89 515.328 198.545C514.484 197.701 517.971 186.884 519.087 186.884C519.654 186.884 519.869 186.482 519.566 185.99C519.262 185.499 519.681 183.498 520.498 181.544C521.314 179.59 521.602 177.756 521.136 177.468C518.725 175.978 513.32 187.097 511.455 197.384C510.705 201.517 507.188 209.406 506.432 208.65C506.197 208.414 507.128 204.917 508.502 200.878C511.095 193.254 511.602 189.884 510.155 189.884C508.356 189.884 506.108 193.652 504.189 199.884L502.187 206.384L502.094 201.717C502.04 199.055 502.87 195.02 504.025 192.325C505.139 189.727 505.833 187.384 505.568 187.119C503.541 185.092 498.764 192.31 497.421 199.431C497.011 201.605 496.486 202.822 496.254 202.134C496.023 201.446 495.196 200.884 494.417 200.884C493.365 200.884 492.954 202.493 492.82 207.134C492.645 213.205 492.628 213.241 492.246 208.384C491.573 199.817 494.466 192.662 502.749 182.415C510.064 173.366 513.57 165.812 512.82 160.716C512.242 156.79 510.181 157.574 509.245 162.074C508.692 164.733 507.858 166.275 507.069 166.099C506.365 165.942 505.162 166.335 504.395 166.971C503.274 167.901 503 167.7 503 165.947C503 164.748 503.419 164.025 503.931 164.341C504.443 164.658 505.187 164.39 505.585 163.746C506.021 163.041 505.877 162.842 505.224 163.246C504.627 163.615 503.856 163.459 503.51 162.9C502.28 160.91 500.241 161.93 499.662 164.825C499.338 166.442 497.687 170.824 495.992 174.561C493.645 179.739 492.69 181.003 491.986 179.871C491.222 178.643 490.708 178.603 489.031 179.642C487.137 180.816 487 180.665 487 177.402C487 172.109 493.11 156.972 498.872 147.989C501.692 143.592 504 139.321 504 138.498C504 135.229 501.879 136.003 499.347 140.194C497.386 143.442 496.191 144.485 494.839 144.132C493.545 143.793 492.991 144.204 492.969 145.517C492.926 148.089 485.333 159.884 483.721 159.884C483.451 159.884 482.918 157.383 482.536 154.327C482.091 150.766 481.421 148.908 480.671 149.155C478.753 149.786 478.707 153.735 480.486 164.858C482.31 176.26 482.225 182.991 480.25 183.64C479.35 183.936 479 182.486 479 178.467C479 174.277 478.641 172.884 477.561 172.884C476.616 172.884 475.867 174.514 475.377 177.634L474.632 182.384L471.997 173.944C468.605 163.081 466.488 161.922 467.245 171.343L467.784 178.067L465.477 174.243C464.207 172.14 463.442 169.962 463.776 169.402C464.111 168.842 463.576 169.04 462.588 169.843C461.214 170.959 460.916 172.22 461.318 175.218C461.722 178.229 461.388 179.625 459.874 181.249C458.369 182.865 458.046 184.196 458.503 186.901C458.832 188.846 458.704 191.511 458.219 192.821C457.452 194.895 456.99 194.111 454.664 186.794C450.83 174.732 450.859 174.61 458.75 169.497C471.135 161.471 478.688 152.184 485.683 136.384C492.281 121.481 493.792 117.038 497.59 101.384C501.838 83.8739 502.096 76.9869 498.959 64.7699C496.278 54.3259 495.219 38.1829 496.943 34.0209C497.665 32.2789 499.468 30.5189 501.313 29.7539C503.041 29.0389 506.725 26.3969 509.5 23.8839C512.275 21.3709 516.11 18.6899 518.023 17.9269C522.526 16.1289 522.337 16.3819 521.017 13.9169C520.388 12.7399 517.314 10.1549 514.186 8.17193C511.059 6.18793 507.228 3.51193 505.673 2.22493C502.286 -0.580072 498.424 -0.71607 491.371 1.72193ZM499.5 8.88393C499.852 9.45293 498.991 9.88393 497.5 9.88393C496.009 9.88393 495.148 9.45293 495.5 8.88393C495.84 8.33393 496.74 7.88393 497.5 7.88393C498.26 7.88393 499.16 8.33393 499.5 8.88393ZM85.729 21.4879C85.397 21.8199 84.534 21.8559 83.813 21.5669C83.015 21.2479 83.252 21.0109 84.417 20.9629C85.471 20.9199 86.061 21.1559 85.729 21.4879ZM215.5 33.2469C234.676 39.0099 250.511 48.5189 263.684 62.1809C271.464 70.2499 283.608 86.5699 280.405 84.6509C274.896 81.3509 232.626 63.2369 219 58.3369C210.324 55.2169 197.306 50.2939 181.5 44.1559C174.35 41.3799 165.248 38.0719 161.273 36.8059C157.298 35.5409 154.245 34.3049 154.489 34.0609C154.734 33.8169 158.211 32.8039 162.217 31.8089C168.184 30.3269 172.842 30.0489 188 30.2709C204.77 30.5169 207.342 30.7949 215.5 33.2469ZM149.525 48.7979C158.311 51.4999 168.762 54.6689 172.75 55.8399C180.926 58.2409 182.215 59.4429 175.538 58.4419C171.181 57.7889 167 58.9609 167 60.8359C167 61.3209 169.339 62.2199 172.197 62.8329C185.97 65.7869 213.345 77.4939 224.844 85.3479C231.697 90.0279 242.427 95.4369 257.278 101.696C258.806 102.34 260.317 103.546 260.635 104.375C260.953 105.205 262.02 105.884 263.005 105.884C263.99 105.884 266.754 107.004 269.148 108.372C271.542 109.74 274.723 110.865 276.219 110.872C278.105 110.88 278.777 111.303 278.412 112.253C277.875 113.652 280.652 114.844 284.509 114.87C286.628 114.885 289.444 118.357 288.532 119.831C288.238 120.308 288.974 120.442 290.167 120.13C291.889 119.68 292.206 119.906 291.7 121.223C291.35 122.137 291.499 122.884 292.031 122.884C293.179 122.884 293.347 147.791 292.211 149.576C291.729 150.335 290.419 148.792 288.604 145.326C287.037 142.333 285.387 139.884 284.936 139.884C282.854 139.884 283.349 142.211 287.062 149.89C290.305 156.595 290.899 158.673 290.179 160.78C289.366 163.156 289.183 162.888 288.089 157.711C287.43 154.591 286.24 151.498 285.445 150.838C284.65 150.179 284 149.067 284 148.369C284 147.67 283.262 146.815 282.361 146.469C280.936 145.922 280.801 146.464 281.325 150.612L281.927 155.384L279.972 151.696C276.841 145.792 269.878 142.054 271.474 147.134C271.862 148.372 272.34 150.734 272.535 152.384C272.73 154.034 274.039 159.659 275.443 164.884C276.846 170.109 277.996 175.007 277.997 175.769C278.003 178.592 273.625 171.429 264.475 153.641C259.309 143.6 253.615 133.809 251.821 131.884C250.027 129.959 248.696 127.934 248.863 127.384C249.03 126.834 248.833 126.718 248.425 127.125C248.018 127.533 247.061 127.35 246.3 126.718C245.292 125.881 244.616 125.868 243.814 126.67C243.013 127.471 243.961 129.159 247.299 132.872C249.822 135.678 255.14 144.14 259.118 151.679C263.095 159.217 267.621 167.541 269.175 170.178C272.647 176.07 272.704 177.491 269.5 178.295C268.125 178.64 267 179.648 267 180.535C267 181.834 267.764 182.045 270.933 181.62C273.897 181.222 275.012 181.472 275.457 182.631C275.781 183.478 275.924 184.274 275.774 184.402C274.668 185.336 264.381 187.658 263.844 187.095C263.471 186.704 262.277 181.087 261.189 174.614C259.341 163.613 257.779 159.285 256.044 160.357C255.642 160.605 255.909 164.763 256.635 169.596C258.507 182.042 258.181 183.656 255.668 174.384C254.475 169.981 253.05 166.609 252.5 166.884C251.95 167.159 251.516 169.853 251.536 172.87L251.573 178.356L250.134 174.576C248.378 169.962 245.301 169.739 245.836 174.265C246.353 178.635 244.247 176.526 242.662 171.085C241.261 166.274 238.477 164.266 237.799 167.577C237.567 168.709 236.714 167.422 235.517 164.134C234.465 161.247 233.019 158.884 232.302 158.884C230.61 158.884 230.66 160.377 232.568 166.801C233.43 169.705 233.993 172.222 233.818 172.394C233.643 172.566 229.45 171.893 224.5 170.899C211.067 168.202 202 167.598 202 169.403C202 171.036 202.389 171.141 217.5 173.597L228.5 175.384L215 176.032C207.575 176.389 200.743 176.481 199.818 176.237C198.893 175.992 197.024 173.901 195.663 171.588C192.386 166.016 188.281 162.203 186.971 163.513C186.302 164.182 187.345 166.437 190.117 170.308L194.266 176.101L191.228 175.434C187.785 174.678 185.801 176.506 188.134 178.286C189.655 179.447 189.5 182.884 187.927 182.884C187.417 182.884 187 183.575 187 184.419C187 187.521 183.249 184.022 182.543 180.262C182.164 178.24 181.062 175.865 180.094 174.985C179.126 174.104 177.533 170.684 176.555 167.384C174.642 160.935 173.278 158.594 171.919 159.434C170.931 160.045 171.492 163.594 174.121 173.364C176.447 182.005 176.451 182.602 174.171 180.539C170.334 177.067 168.916 178.887 171.526 183.934C172.4 185.625 172.614 186.884 172.026 186.884C171.462 186.884 171 187.659 171 188.607C171 189.982 170.668 189.855 169.352 187.976C167.928 185.944 167.795 183.727 168.371 171.664C168.894 160.712 168.768 157.795 167.788 158.121C166.33 158.607 165.356 162.725 164.474 172.135L163.841 178.886L156.34 171.385C152.214 167.259 148.452 163.884 147.978 163.884C146.189 163.884 145.866 166.078 147.404 167.778C148.284 168.751 148.666 169.919 148.252 170.375C147.838 170.832 148.019 170.908 148.654 170.545C150.653 169.401 162.977 183.362 162.993 186.789C162.998 187.859 162.524 187.763 161 186.384C159.9 185.389 159 183.744 159 182.729C159 181.544 158.277 180.884 156.977 180.884C155.059 180.884 154.985 181.316 155.568 189.134L156.182 197.384L153.988 193.941C152.782 192.047 151.38 187.574 150.874 184.001C150.368 180.428 149.77 177.32 149.544 177.094C148.55 176.101 147 178.225 147 180.58C147 183.073 146.838 183.006 142.043 178.521C139.316 175.971 136.643 173.884 136.102 173.884C133.509 173.884 134.572 176.088 140.001 181.971C146.448 188.958 147.188 190.402 143.75 189.293C142.512 188.894 140.026 188.473 138.224 188.357C131.944 187.955 126.957 180.579 125.06 168.884C122.598 153.706 119.32 145.164 116.89 147.594C116.086 148.398 116.325 150.146 117.773 154.041C119.854 159.641 122.555 173.663 121.714 174.504C121.445 174.773 118.4 171.838 114.947 167.982C111.494 164.125 108.348 161.169 107.955 161.412C107.563 161.654 106.993 162.804 106.688 163.967C106.384 165.13 106.369 165.848 106.655 165.563C107.558 164.66 124 183.89 124 185.849C124 186.878 124.268 188.545 124.595 189.552C124.922 190.56 123.474 188.572 121.377 185.134C117.255 178.379 115.183 177.452 112.434 181.134C111.3 182.653 110.946 182.815 111.346 181.634C111.671 180.671 111.536 179.884 111.046 179.884C110.556 179.884 109.602 178.196 108.926 176.134C107.924 173.077 106.422 170.079 104.369 167.034C104.239 166.841 103.67 166.97 103.105 167.319C102.45 167.724 103.141 170.842 105.007 175.902L107.937 183.849L105.718 183.617C104.052 183.442 103.579 183.844 103.817 185.234C104.364 188.429 102.209 186.082 98.492 179.435C92.675 169.034 89.314 167.993 93.509 177.892C95.621 182.876 95.682 183.441 94.168 184.001C92.469 184.63 89.69 181.194 90.647 179.647C90.906 179.227 90.69 178.884 90.166 178.884C88.169 178.884 88.096 175.616 90.009 171.866C91.104 169.72 92 167.721 92 167.424C92 166.28 89.185 166.956 88 168.384C85.548 171.339 84.793 169.979 85.5 163.884C86.094 158.763 85.962 157.884 84.598 157.884C83.719 157.884 83 158.409 83 159.051C83 162.475 81.708 158.021 80.446 150.242C75.248 118.224 85.543 86.2159 108.954 61.6049C115.154 55.0869 129.983 43.9499 132.525 43.9029C133.088 43.8919 140.738 46.0949 149.525 48.7979ZM477.631 56.4749C481.745 58.3499 486.098 59.8979 487.305 59.9159C488.512 59.9329 490.374 60.6079 491.441 61.4159C493.228 62.7669 492.99 62.8749 488.441 62.7659C482.022 62.6119 477.45 61.5379 477.695 60.2419C477.803 59.6759 476.548 59.2919 474.906 59.3899C473.265 59.4869 471.671 59.1609 471.364 58.6639C471.057 58.1669 469.724 57.3499 468.403 56.8469C466.923 56.2839 466 55.1299 466 53.8409C466 51.3459 466.746 51.5149 477.631 56.4749ZM423.729 91.4879C423.397 91.8199 422.534 91.8559 421.813 91.5669C421.015 91.2479 421.252 91.0109 422.417 90.9629C423.471 90.9199 424.061 91.1559 423.729 91.4879ZM417.54 94.2889C419.338 95.6039 419.285 95.6609 416.731 95.1729C415.229 94.8859 414 94.2529 414 93.7669C414 92.4849 415.342 92.6829 417.54 94.2889ZM427.269 99.5399C426.592 99.8139 425.242 99.8309 424.269 99.5769C423.296 99.3229 423.85 99.0989 425.5 99.0789C427.15 99.0589 427.946 99.2659 427.269 99.5399ZM394 103.786C394 104.282 392.538 105.176 390.75 105.771L387.5 106.855L389.861 104.869C392.387 102.745 394 102.323 394 103.786ZM402 104.884C403.213 105.668 403.069 105.856 401.25 105.869C400.012 105.877 399 105.434 399 104.884C399 103.631 400.061 103.631 402 104.884ZM428 104.884C429.219 105.672 429.09 105.856 427.309 105.869C426.104 105.877 424.84 105.434 424.5 104.884C423.713 103.611 426.03 103.611 428 104.884ZM408 107.884C407.175 108.417 405.825 108.853 405 108.853C403.667 108.853 403.667 108.746 405 107.884C405.825 107.351 407.175 106.915 408 106.915C409.333 106.915 409.333 107.022 408 107.884ZM383 111.229C383 111.419 381.988 112.431 380.75 113.479L378.5 115.384L380.405 113.134C382.195 111.02 383 110.429 383 111.229ZM412 112.229C412 112.419 411.035 113.431 409.854 114.479C407.72 116.374 407.715 116.372 408.89 114.134C409.864 112.276 412 110.968 412 112.229ZM386.27 117.014C385.668 117.616 384.602 117.756 383.904 117.324C382.965 116.744 383.138 116.356 384.566 115.837C386.934 114.978 387.746 115.538 386.27 117.014ZM404.729 118.488C404.397 118.82 403.534 118.856 402.813 118.567C402.015 118.248 402.252 118.011 403.417 117.963C404.471 117.92 405.061 118.156 404.729 118.488ZM414.362 121.384C414.045 122.209 413.609 122.884 413.393 122.884C413.177 122.884 413 122.209 413 121.384C413 120.559 413.436 119.884 413.969 119.884C414.501 119.884 414.678 120.559 414.362 121.384ZM370 122.21C370 122.389 368.762 123.626 367.25 124.96L364.5 127.384L366.924 124.634C369.19 122.064 370 121.425 370 122.21ZM383 122.262C383 122.469 382.315 123.208 381.477 123.903C380.204 124.96 380.057 124.898 380.584 123.525C381.122 122.124 383 121.141 383 122.262ZM399.607 123.466C399.273 124.336 398.986 125.798 398.97 126.716C398.941 128.271 398.873 128.271 397.968 126.72C396.89 124.872 397.66 121.884 399.214 121.884C399.764 121.884 399.941 122.596 399.607 123.466ZM375 124.295C375 125.273 364.492 134.884 363.423 134.884C362.773 134.884 360.582 136.909 358.554 139.384C354.569 144.247 354.602 144.846 358.708 142.156L361.345 140.428L359.425 143.358C357.678 146.025 357.662 146.228 359.253 145.617C360.427 145.167 361 145.428 361 146.415C361 147.223 361.675 147.884 362.5 147.884C364.491 147.884 364.382 148.656 361.734 153.306C358.619 158.775 356.649 159.187 358.711 153.938C359.591 151.697 359.98 149.531 359.574 149.125C358.788 148.339 357.582 149.784 354.719 154.945C351.823 160.163 351.509 157.423 354.374 151.943C357.435 146.088 357.474 145.884 355.516 145.884C354.7 145.884 352.696 148.472 351.064 151.634C349.361 154.934 348.1 156.532 348.104 155.384C348.116 152.385 351.683 144.349 352.882 144.622C353.457 144.753 353.708 144.287 353.439 143.586C352.921 142.236 360.348 131.565 361.207 132.424C361.484 132.702 364.589 130.918 368.106 128.461C374.883 123.726 375 123.655 375 124.295ZM390.835 128.192C390.078 129.607 389.514 129.927 389.238 129.098C388.612 127.219 389.824 124.657 390.996 125.381C391.661 125.793 391.607 126.751 390.835 128.192ZM406.573 130.555C406.086 131.823 405.697 131.878 404.463 130.853C403.12 129.739 403.15 129.375 404.725 127.63C406.305 125.88 406.537 125.847 406.835 127.332C407.019 128.25 406.901 129.7 406.573 130.555ZM305.603 128.292C305.9 129.067 307.461 130.247 309.072 130.914C310.682 131.581 312 132.429 312 132.798C312 133.167 314.053 134.018 316.563 134.69C320.439 135.726 321.032 136.209 320.496 137.897C319.961 139.582 320.327 139.884 322.901 139.884C325.189 139.884 325.795 140.254 325.362 141.384C324.944 142.473 325.477 142.884 327.31 142.884C328.698 142.884 329.983 143.222 330.167 143.634C330.35 144.046 332.075 145.184 334 146.162C335.925 147.14 338.069 149.156 338.765 150.642C339.872 153.009 339.701 154.117 337.387 159.561C334.498 166.359 334.67 169.045 337.939 168.19C339.072 167.893 340 168.102 340 168.654C340 170.748 346.413 170.576 351.936 168.334C358.438 165.696 365.926 164.398 369.487 165.291C371.747 165.859 372 166.42 372 170.866C372 173.584 371.098 178.188 369.995 181.096C367.04 188.892 366.804 189.14 363.528 187.895C359.917 186.522 359.313 187.226 360.778 191.106C362.384 195.361 361.549 195.784 358.089 192.47C356.062 190.528 354.998 188.31 354.526 185.043C353.178 175.731 351.852 171.884 349.988 171.884C347.198 171.884 346.948 174.306 349.104 180.441C351.175 186.333 351.076 188.79 348.931 184.72C347.366 181.749 345.74 180.686 344.883 182.073C344.515 182.669 343.276 181.037 342.131 178.446C340.05 173.743 337.28 172.88 338.384 177.279C338.783 178.867 338.467 179.474 337.215 179.525C336.272 179.564 334.819 179.892 333.986 180.256C332.931 180.716 331.907 179.867 330.607 177.454C328.275 173.122 324.47 169.476 323.14 170.298C322.585 170.64 322.386 172.487 322.697 174.402C323.047 176.561 322.855 177.884 322.191 177.884C321.602 177.884 320.981 176.231 320.81 174.211C320.464 170.115 318.17 168.518 317.317 171.779C316.638 174.378 316.947 174.398 310.984 171.376C307.356 169.538 305.868 168.135 305.413 166.126C305.071 164.618 304.164 161.165 303.396 158.452C302.518 155.351 302 148.578 302 140.202C302 128.909 302.233 126.884 303.531 126.884C304.374 126.884 305.306 127.518 305.603 128.292ZM383 136.006C383 138.691 382.786 138.951 381.476 137.864C379.809 136.481 379.796 136.487 378.178 139.384C376.769 141.906 376.632 139.44 378.035 136.818C378.605 135.754 379.73 134.884 380.535 134.884C381.341 134.884 382 134.434 382 133.884C382 133.334 382.225 132.884 382.5 132.884C382.775 132.884 383 134.289 383 136.006ZM371.124 137.151C370.136 138.131 370.022 138.016 370.564 136.591C370.94 135.605 371.499 135.05 371.807 135.358C372.115 135.665 371.808 136.472 371.124 137.151ZM393.032 138.468C393.572 139.889 393.708 141.547 393.335 142.152C392.586 143.362 391.188 140.573 391.07 137.634C390.968 135.093 391.899 135.489 393.032 138.468ZM401.683 138.072C401.364 138.869 401.127 138.632 401.079 137.467C401.036 136.413 401.272 135.823 401.604 136.155C401.936 136.487 401.972 137.35 401.683 138.072ZM386.422 146.26C387.005 148.729 386.852 149.041 385.342 148.462C384.167 148.011 383.051 148.491 381.984 149.906C380.431 151.964 380.397 151.925 380.791 148.545C381.076 146.108 381.797 144.909 383.199 144.542C384.504 144.201 384.941 143.56 384.454 142.701C383.951 141.815 384.039 141.711 384.724 142.384C385.284 142.934 386.048 144.678 386.422 146.26ZM283.559 171.199C285.197 175.993 284.914 178.198 282.918 176.202C282.06 175.344 277.973 161.62 278.059 159.884C278.118 158.698 282.056 166.799 283.559 171.199ZM300.985 164.693C300.971 166.15 300.835 166.177 300 164.884C298.734 162.926 298.734 161.602 300 162.384C300.55 162.724 300.993 163.763 300.985 164.693ZM76.93 178.193C76.974 181.827 76.626 183.771 76 183.384C75.45 183.044 75.032 179.53 75.07 175.575C75.155 166.875 76.821 169.22 76.93 178.193ZM299.846 174.332C300.066 175.472 299.706 175.953 298.846 175.666C298.105 175.42 297.345 174.416 297.154 173.436C296.934 172.296 297.294 171.815 298.154 172.102C298.895 172.348 299.655 173.352 299.846 174.332ZM315.647 178.44C318.002 180.795 318.813 183.884 317.077 183.884C315.437 183.884 309.972 178.731 308.411 175.712L306.894 172.778L310.094 174.433C311.854 175.343 314.353 177.146 315.647 178.44ZM231.729 176.488C231.397 176.82 230.534 176.856 229.813 176.567C229.015 176.248 229.252 176.011 230.417 175.963C231.471 175.92 232.061 176.156 231.729 176.488ZM421.154 176.884C431.07 176.884 432 177.044 432 178.748C432 179.774 434.608 183.936 437.797 187.998C443.344 195.066 449 204.16 449 206.01C449 206.491 447.666 206.884 446.035 206.884C442.567 206.884 441.538 205.332 440.567 198.634C439.866 193.805 439.222 193.062 437.358 194.926C436.634 195.65 435.938 195.515 435.085 194.486C434.408 193.67 433.281 193.223 432.582 193.491C431.882 193.759 430.026 192.27 428.458 190.182C426.889 188.093 425.136 186.065 424.561 185.676C422.558 184.317 421.841 186.676 423.364 189.62C424.436 191.694 424.581 192.903 423.846 193.638C422.482 195.002 419 192.146 419 189.662C419 187.679 416.018 187.16 415.97 189.134C415.953 189.828 415.486 189.605 414.92 188.634C413.413 186.047 412 186.508 412 189.587V192.29L408.115 188.496C405.703 186.141 403.974 185.116 403.556 185.793C403.185 186.393 403.167 187.345 403.515 187.909C403.864 188.472 403.778 188.869 403.324 188.79C401.169 188.416 400.173 189.147 398.43 192.384C396.188 196.547 395.341 196.726 393.807 193.359C392.778 191.1 393.008 190.471 395.993 187.391C398.798 184.497 399.067 183.847 397.68 183.315C396.66 182.923 394.846 183.678 392.93 185.289C391.225 186.724 389.351 187.601 388.764 187.238C388.177 186.876 386.472 188.08 384.974 189.915C382.315 193.174 382.235 193.199 381.541 191.013C380.274 187.023 378.524 189.377 377.489 196.462C376.758 201.474 376.068 203.384 374.989 203.384C373.876 203.384 373.547 202.318 373.687 199.155C373.902 194.308 377.373 188.708 384.16 182.262C390.795 175.962 391.463 175.732 401.404 176.34C406.301 176.639 415.188 176.884 421.154 176.884ZM229.807 181.039C235.137 182.351 239.692 184.884 236.723 184.884C234.544 184.884 234.515 186.691 236.655 189.055C238.218 190.782 238.165 190.884 235.702 190.884C231.504 190.884 228.291 188.886 227.363 185.7C226.397 182.379 224.759 181.831 224 184.575C223.543 186.228 222.939 186.105 217 183.158L210.5 179.931L217.807 179.908C221.826 179.895 227.226 180.404 229.807 181.039ZM329.549 184.668C328.692 185.526 325.998 182.725 326.033 181.012C326.059 179.753 326.518 179.926 328.058 181.776C329.154 183.091 329.825 184.393 329.549 184.668ZM302.612 184.415C303.525 185.807 304.07 187.147 303.825 187.392C303.022 188.195 299 184.806 299 183.327C299 181.086 300.782 181.622 302.612 184.415ZM491 183.884C490.411 184.984 489.705 185.884 489.43 185.884C489.155 185.884 489.411 184.984 490 183.884C490.589 182.784 491.295 181.884 491.57 181.884C491.845 181.884 491.589 182.784 491 183.884ZM205.686 184.397C207.677 185.229 209.062 186.156 208.762 186.456C208.147 187.071 201 184.289 201 183.435C201 182.597 201.744 182.75 205.686 184.397ZM119.993 190.348C120.005 192.043 117.24 188.478 116.531 185.884C115.895 183.557 115.991 183.592 117.917 186.384C119.056 188.034 119.99 189.818 119.993 190.348ZM197.33 187.118C197.88 189.304 197.849 189.316 196.45 187.443C194.844 185.293 194.511 183.464 195.879 184.309C196.363 184.608 197.016 185.872 197.33 187.118ZM466.933 189.384C466.935 189.934 466.276 189.51 465.468 188.443C464.661 187.375 464.016 185.8 464.035 184.943C464.074 183.246 466.926 187.618 466.933 189.384ZM311 192.075C311 193.507 309.234 192.936 308.607 191.302C307.514 188.453 308.033 187.343 309.532 189.325C310.339 190.393 311 191.63 311 192.075ZM340.393 189.466C340.727 190.336 340.982 192.248 340.961 193.716C340.923 196.304 340.878 196.283 339.461 193.019C338.657 191.169 338 189.256 338 188.769C338 187.278 339.749 187.787 340.393 189.466ZM84 191.384C84 192.759 83.55 193.884 83 193.884C81.883 193.884 81.629 190.588 82.667 189.551C83.769 188.448 84 188.766 84 191.384ZM277 189.773C277 190.262 276.212 191.626 275.25 192.804C273.616 194.804 273.351 194.84 271.25 193.358C267.554 190.75 268.678 189.532 275.25 189.02C276.212 188.945 277 189.284 277 189.773ZM189 190.267C189 190.478 188.1 190.886 187 191.174C185.9 191.461 185 191.289 185 190.79C185 190.292 185.9 189.884 187 189.884C188.1 189.884 189 190.057 189 190.267ZM347.61 193.492C348.439 195.477 348.978 197.179 348.809 197.275C348.639 197.371 347.712 198.053 346.75 198.789C345.137 200.024 345 199.729 345 195.006C345 192.189 345.248 189.884 345.551 189.884C345.854 189.884 346.78 191.508 347.61 193.492ZM407.978 197.884C407.973 199.425 407.676 199.922 407.204 199.18C405.932 197.179 402.376 198.016 402.442 200.301C402.475 201.455 401.749 202.474 400.75 202.676C397.587 203.317 398.649 198.987 403.727 190.539C404.541 189.185 407.988 195.14 407.978 197.884ZM142.917 193.519C144.289 194.72 141.034 193.605 139.441 192.329C137.611 190.862 137.643 190.842 140 191.964C141.375 192.619 142.688 193.319 142.917 193.519ZM304.97 195.756C304.936 198.658 303.872 197.435 302.477 192.892C301.792 190.661 301.884 190.543 303.356 191.764C304.26 192.515 304.986 194.311 304.97 195.756ZM134.924 195.134C136.258 196.646 136.852 197.884 136.246 197.884C134.608 197.884 132 194.973 132 193.146C132 192.269 132.113 191.738 132.25 191.967C132.387 192.197 133.591 193.622 134.924 195.134ZM330 198.452C330 200.424 328.73 200.246 325.68 197.847C324.17 196.659 323.324 195.204 323.65 194.354C324.114 193.145 324.703 193.248 327.105 194.958C328.697 196.092 330 197.665 330 198.452ZM463.683 195.072C463.364 195.869 463.127 195.632 463.079 194.467C463.036 193.413 463.272 192.823 463.604 193.155C463.936 193.487 463.972 194.35 463.683 195.072ZM190.141 194.884C190.678 194.884 190.84 195.334 190.5 195.884C189.548 197.424 187.285 197.069 186.596 195.273C186.143 194.093 186.404 193.825 187.57 194.273C188.447 194.609 189.603 194.884 190.141 194.884ZM162.985 200.134C162.993 201.646 162.55 202.884 162 202.884C161.45 202.884 161.007 200.972 161.015 198.634C161.027 195.522 161.29 194.785 162 195.884C162.533 196.709 162.976 198.622 162.985 200.134ZM268.268 196.884C269.21 197.984 269.605 198.884 269.145 198.884C268.686 198.884 267.495 197.984 266.5 196.884C265.505 195.784 265.11 194.884 265.623 194.884C266.136 194.884 267.326 195.784 268.268 196.884ZM120.548 196.649C121.124 197.053 121.659 198.396 121.736 199.634C121.836 201.241 121.322 201.884 119.938 201.884C118.451 201.884 118 201.185 118 198.884C118 195.857 118.63 195.304 120.548 196.649ZM90.393 198.466C90.727 199.336 90.986 201.248 90.97 202.716C90.941 205.183 90.854 205.238 89.811 203.439C88.417 201.036 87.891 196.884 88.981 196.884C89.424 196.884 90.059 197.596 90.393 198.466ZM171.578 203.639C170.722 204.495 170.234 203.72 169.529 200.382L168.896 197.384L170.526 200.222C171.423 201.784 171.896 203.321 171.578 203.639ZM192.826 200.754C191.547 202.333 190.089 203.385 189.586 203.094C189.083 202.802 189.896 201.51 191.392 200.224C195.066 197.063 195.644 197.277 192.826 200.754ZM359 201.384C359 202.144 358.55 203.044 358 203.384C357.431 203.736 357 202.875 357 201.384C357 199.893 357.431 199.032 358 199.384C358.55 199.724 359 200.624 359 201.384ZM381.5 202.884C381.12 204.613 380.585 205.802 380.31 205.527C380.035 205.252 380.12 203.613 380.5 201.884C380.88 200.155 381.415 198.966 381.69 199.241C381.965 199.516 381.88 201.155 381.5 202.884ZM392.746 201.226C393.361 202.577 393.452 204.152 392.961 204.947C391.853 206.74 391.168 205.972 390.385 202.061C389.641 198.339 391.182 197.794 392.746 201.226ZM64.112 204.134C66.202 208.26 66.206 208.331 64.237 206.574C62.54 205.059 60.514 199.884 61.618 199.884C61.806 199.884 62.928 201.796 64.112 204.134ZM486.97 202.634C486.944 204.993 486.794 205.134 485.915 203.626C485.352 202.659 485.168 201.422 485.505 200.876C486.539 199.203 487.001 199.758 486.97 202.634ZM82.985 205.134C82.993 206.096 82.577 206.884 82.059 206.884C80.513 206.884 79.826 205.006 80.545 202.743C81.074 201.074 81.406 200.915 82.094 202.002C82.575 202.762 82.976 204.172 82.985 205.134ZM231 203.384C232.292 204.759 233.124 205.884 232.849 205.884C232.574 205.884 231.292 204.759 230 203.384C228.708 202.009 227.876 200.884 228.151 200.884C228.426 200.884 229.708 202.009 231 203.384ZM466.02 203.36C465.324 204.198 464.29 204.884 463.723 204.884C463.155 204.884 463.507 203.981 464.506 202.878C466.574 200.593 467.952 201.031 466.02 203.36ZM57 206.976C57 207.549 55.763 207.874 54.25 207.7C52.254 207.471 51.41 206.749 51.172 205.068C50.849 202.792 50.897 202.779 53.922 204.344C55.615 205.219 57 206.404 57 206.976ZM336.554 205.797C336.184 206.395 335.218 206.884 334.406 206.884C333.214 206.884 333.147 206.477 334.057 204.777C334.824 203.344 335.512 202.996 336.206 203.69C336.767 204.251 336.923 205.199 336.554 205.797ZM155.045 210.246C155.848 212.72 155.772 212.94 154.487 211.873C153.62 211.154 153.048 209.126 153.116 207.012C153.18 205.016 153.431 204.284 153.674 205.384C153.917 206.484 154.534 208.672 155.045 210.246ZM210 207.443C210 208.236 209.55 208.884 209 208.884C208.45 208.884 208 207.957 208 206.825C208 205.693 208.45 205.044 209 205.384C209.55 205.724 210 206.65 210 207.443ZM514.09 208.148C513.558 209.546 512.638 210.99 512.045 211.356C511.451 211.723 511.729 210.422 512.662 208.466C514.569 204.468 515.574 204.244 514.09 208.148ZM204.439 209.884C205.078 212.287 205.043 212.308 203.552 210.443C202.698 209.375 202 207.823 202 206.993C202 204.879 203.62 206.799 204.439 209.884ZM522.88 210.884C521.152 213.958 520.038 214.875 518.066 214.843C515.607 214.804 515.682 214.638 519.879 210.843C522.287 208.666 524.453 206.884 524.693 206.884C524.932 206.884 524.116 208.684 522.88 210.884ZM230 209.943C230 210.461 229.55 210.884 229 210.884C228.45 210.884 228 210.182 228 209.325C228 208.468 228.45 208.044 229 208.384C229.55 208.724 230 209.425 230 209.943ZM539 210.384C538.293 211.236 537.49 211.707 537.215 211.432C536.94 211.157 537.293 210.236 538 209.384C538.707 208.532 539.51 208.061 539.785 208.336C540.06 208.611 539.707 209.532 539 210.384ZM468.362 210.384C468.045 211.209 467.329 211.884 466.771 211.884C466.185 211.884 466.282 211.249 467 210.384C467.685 209.559 468.401 208.884 468.591 208.884C468.781 208.884 468.678 209.559 468.362 210.384ZM488.588 214.629C487.513 215.704 486.942 214.198 487.697 212.277C488.405 210.475 488.459 210.472 488.809 212.212C489.011 213.218 488.912 214.305 488.588 214.629ZM552 227.384V232.884H284.5H17V227.384V221.884H284.5H552V227.384ZM53 240.91C53 242.789 52.802 242.835 50.25 241.547C48.737 240.783 46.825 239.907 46 239.6C45.175 239.293 46.412 239.006 48.75 238.963C52.377 238.896 53 239.181 53 240.91ZM93 241.805C93 244.221 93.506 244.836 95.931 245.369C97.543 245.723 99.301 246.546 99.837 247.198C101.406 249.106 102.285 257.448 101.543 263.39L100.856 268.884H89.428H78V260.533C78 249.356 79.138 246.268 83.563 245.438C86.558 244.876 87 244.413 87 241.839C87 239.222 87.344 238.884 90 238.884C92.649 238.884 93 239.226 93 241.805ZM220 239.313C220 239.83 206.965 270.72 199.845 287.077C195.191 297.767 192.073 302.884 190.211 302.884C189.82 302.884 189.5 299.322 189.5 294.967C189.5 290.613 189.221 286.771 188.879 286.43C187.391 284.942 183.014 288.394 181.474 292.27C178.152 300.633 173.135 303.884 163.55 303.884C153.756 303.884 153 302.804 153 288.809V277.733L161.663 278.059L170.326 278.384L171.476 281.805C172.541 284.974 175.489 287.218 177.25 286.2C177.662 285.961 178 279.913 178 272.759V259.751L175.316 260.068C173.342 260.3 172.435 261.128 171.885 263.198C170.535 268.286 169.378 268.884 160.878 268.884H153V257.884V246.884H161.453C172.154 246.884 174.322 247.881 176.961 254.014C178.909 258.544 179.306 258.884 182.636 258.884H186.216L185.5 248.884L184.784 238.884H202.392C212.076 238.884 220 239.077 220 239.313ZM267.667 241.492C261.347 247.352 259.005 258.877 262.595 266.443C264.998 271.508 271.912 277.315 280.947 281.857C285.401 284.097 289.935 286.819 291.022 287.906C292.11 288.994 293 289.604 293 289.262C293 287.892 296.269 291.462 297.16 293.804C298.319 296.854 297.405 301.252 295.816 300.27C295.127 299.844 294.969 300.025 295.409 300.737C296.751 302.909 292.942 305.224 287.252 305.696C283.311 306.023 281.915 305.831 282.409 305.031C282.838 304.337 282.564 304.114 281.692 304.449C279.138 305.429 274.327 300.07 270.881 292.407C268.632 287.405 266.941 284.886 265.832 284.885C264.914 284.884 263.452 284.611 262.582 284.277C261.211 283.751 261 284.878 261 292.718C261 302.593 259.913 304.729 256.9 300.778C255.896 299.461 250.721 287.359 245.399 273.884C240.077 260.409 234.885 247.414 233.861 245.007C232.837 242.599 232 240.228 232 239.737C232 239.241 240.522 238.882 251.168 238.931L270.335 239.018L267.667 241.492ZM301 239.884C301 241.137 299.939 241.137 298 239.884C296.787 239.1 296.931 238.912 298.75 238.899C299.988 238.891 301 239.334 301 239.884ZM339.698 240.134C339.415 240.822 335.491 250.159 330.978 260.884C326.466 271.609 321.65 283.083 320.278 286.382C316.628 295.155 313.367 301.335 311.624 302.781C310.379 303.814 310.458 303.012 312.046 298.493C314.415 291.753 314.467 289.61 312.405 283.559C310.354 277.541 305.174 273.048 293.5 267.162C279.89 260.299 276.203 257.482 275.428 253.354C274.685 249.393 275.781 247.566 280.299 245.23C286.525 242.01 293.785 245.989 299.205 255.594C301.981 260.513 302.529 260.965 305.376 260.688L308.5 260.384L308.784 249.634L309.068 238.884H324.641C336.708 238.884 340.098 239.165 339.698 240.134ZM380 242.384C380 245.184 380.389 245.884 381.944 245.884C383.014 245.884 385.151 246.969 386.694 248.296L389.5 250.708L389.826 275.091C390.193 302.562 390 303.385 382.895 304.522C379.66 305.039 379.047 304.759 376.932 301.789C374.95 299.006 362.044 267.864 353.452 245.134L351.09 238.884H365.545H380V242.384ZM428 241.865C428 244.306 428.498 244.954 430.75 245.443C437.007 246.801 437.835 247.755 438.408 254.268C438.704 257.632 439.11 265.231 439.31 271.155L439.674 281.926L437.368 279.76C436.099 278.568 435.299 277.209 435.59 276.739C435.88 276.269 435.685 275.884 435.155 275.884C434.626 275.884 432.012 273.14 429.346 269.786C423.629 262.593 418.487 256.182 416.166 253.355C414.25 251.022 407.1 241.991 405.699 240.134C404.957 239.152 407.243 238.884 416.378 238.884H428V241.865ZM523.947 244.486C518.919 254.043 520.316 263.101 527.913 270.203C530.436 272.562 537.04 277.061 542.589 280.202C554.781 287.103 557.2 289.448 557.2 294.366C557.2 298.838 554.919 301.528 549.837 303.051C541.653 305.503 534.085 300.088 528.991 288.134C527.069 283.624 526.368 282.884 524.016 282.884C521.46 282.884 521.237 283.233 520.648 288.134C520.301 291.021 520.013 295.248 520.009 297.526C520.001 300.981 519.627 301.761 517.75 302.237C516.513 302.55 514.381 304.624 513.014 306.845C510.947 310.203 509.989 310.884 507.33 310.884C504.597 310.884 504.087 310.49 503.816 308.17C503.562 305.991 502.84 305.321 500.157 304.777C498.319 304.404 496.399 303.683 495.891 303.175C495.358 302.642 495.08 290.458 495.234 274.318L495.5 246.384L500 246.71C505.935 247.14 508.771 249.113 511.134 254.455C513.325 259.407 516.701 261.963 518.112 259.737C518.583 258.993 518.976 253.997 518.985 248.634L519 238.884H522.947H526.893L523.947 244.486ZM35.452 247.299C39.506 248.993 40.92 251.361 41.642 257.663C42.624 266.244 39.54 270.14 30.75 271.42L26 272.111V258.998V245.884H29.032C30.7 245.884 33.589 246.521 35.452 247.299ZM59.171 247.539C60.853 249.061 61 251.271 61 275.039C61 299.551 60.897 300.987 59 302.884C57.9 303.984 56.1 304.884 55 304.884C53.444 304.884 53 305.551 53 307.884V310.884H43.566H34.133L33.816 308.174C33.59 306.238 32.788 305.297 31.008 304.88C27.246 304.001 26.031 300.434 26.015 290.222L26 281.06L29.75 280.499C31.813 280.19 35.75 279.634 38.5 279.264C48.11 277.968 54.93 273.69 57.61 267.274C59.441 262.892 59.38 254.037 57.487 249.506C55.837 245.557 56.337 244.974 59.171 247.539ZM131.093 246.934C132.972 247.94 133.051 249.14 132.968 275.518C132.894 298.946 132.668 302.971 131.453 302.504C130.65 302.196 130.128 302.488 130.262 303.17C130.578 304.782 123.704 305.331 121.042 303.907C119.064 302.848 119 301.976 119 275.92C119 252.805 119.221 248.806 120.571 247.455C122.364 245.663 128.18 245.375 131.093 246.934ZM453.985 254.634C454 260.857 454.013 260.884 456.893 260.884C459.966 260.884 461 259.454 461 255.203C461 253.677 462.222 251.544 464.106 249.785C466.738 247.326 468.033 246.884 472.606 246.884H478V274.229C478 300.332 477.909 301.656 475.994 303.39C474.89 304.388 473.706 304.924 473.362 304.58C472.076 303.293 469 306.025 469 308.454V310.954L458.75 310.669C448.625 310.387 448.497 310.354 448.287 307.884C448.169 306.509 448.352 292.634 448.692 277.05C449.197 253.876 449.581 248.445 450.8 247.227C453.023 245.004 453.966 247.2 453.985 254.634ZM417.6 284.466C426.895 296.336 435.325 307.136 436.333 308.466L438.167 310.884H426.233H414.299L412 307.884C410.464 305.879 408.819 304.884 407.042 304.884C405.579 304.884 403.509 304.246 402.441 303.466C400.654 302.161 400.475 300.498 400.191 282.466C400.02 271.696 400.065 262.884 400.291 262.884C400.516 262.884 408.305 272.596 417.6 284.466ZM226.849 273.134L229.825 280.884H222.913C219.111 280.884 215.996 280.547 215.992 280.134C215.97 278.107 222.474 263.96 223.124 264.621C223.535 265.041 225.212 268.872 226.849 273.134ZM346.482 273.267L349.865 281.884H344.514C338.635 281.884 336 281.2 336 279.673C336 278.395 342.401 263.981 342.799 264.363C342.964 264.52 344.621 268.527 346.482 273.267ZM102 287.235C102 300.074 100.923 303.59 96.653 304.688C94.23 305.312 93.427 306.122 93.184 308.192C92.92 310.431 92.374 310.884 89.934 310.884C87.341 310.884 87 310.536 87 307.884C87 305.417 86.59 304.884 84.691 304.884C83.421 304.884 81.509 304.246 80.441 303.467C78.732 302.219 78.46 300.545 78.168 289.467L77.837 276.884H89.918H102V287.235ZM228.834 290.524L234.961 291.165L237.009 296.638C239.367 302.941 238.717 304.588 233.676 305.076C231.047 305.331 230.445 305.858 230.184 308.134C229.868 310.874 229.839 310.884 222 310.884C214.204 310.884 214.13 310.86 213.816 308.192C213.571 306.103 212.772 305.312 210.25 304.663C206.129 303.603 205.913 300.415 209.542 294.222C212.035 289.968 212.188 289.884 217.395 289.884C220.317 289.884 225.464 290.172 228.834 290.524ZM356.307 295.634C359.035 303.244 358.682 304.751 354 305.5C350.637 306.038 350 306.518 350 308.512C350 310.809 349.748 310.884 342.07 310.884C334.702 310.884 334.116 310.73 333.82 308.718C333.606 307.27 332.339 306.156 330 305.357C326.946 304.315 326.542 303.795 326.827 301.273C327.007 299.684 328.102 296.697 329.261 294.634L331.368 290.884H342.987H354.605L356.307 295.634ZM535.5 310.004C530.499 311.076 520.815 310.993 521.5 309.884C521.84 309.334 522.988 308.884 524.051 308.884C525.113 308.884 526.51 308.04 527.155 307.007C528.295 305.181 528.464 305.188 533.414 307.246C538.487 309.356 538.492 309.363 535.5 310.004ZM273.917 310.519C274.146 310.72 272.922 310.884 271.198 310.884C268.839 310.884 268.204 310.517 268.631 309.402C269.084 308.224 269.64 308.149 271.35 309.038C272.532 309.652 273.688 310.319 273.917 310.519ZM502.905 321.634C495.794 330.924 486.365 341.235 478.172 348.679C467.744 358.154 464.764 360.266 463.471 359.099C463.036 358.706 462.957 358.872 463.296 359.468C464.121 360.919 452.322 369.186 450.731 368.271C450.054 367.882 449.849 367.947 450.275 368.416C451.35 369.597 436.863 377.462 429.145 379.887C422.543 381.961 416.479 382.536 417.43 380.997C417.732 380.509 417.196 380.172 416.239 380.247C411.95 380.585 414.004 370.869 422.452 350.865C428.678 336.124 429.443 333.178 428.016 329.425C427.016 326.797 426.682 326.66 422.724 327.259C414.298 328.536 414.523 328.581 414.175 325.55C413.491 319.57 410.972 319.884 459.591 319.884C501.962 319.884 504.176 319.973 502.905 321.634ZM358 348.688C358 354.102 349.032 366.702 341.48 371.898C336.277 375.478 336.039 375.514 336.715 372.634C338.179 366.384 344.213 355.959 348.906 351.569C354.11 346.701 358 345.468 358 348.688ZM232.639 383.386C233.58 385.837 232.279 389.238 227.884 395.82C224.045 401.568 213.158 411.884 210.929 411.884C210.389 411.884 210.238 410.669 210.586 409.134C212.242 401.837 222.109 387.009 227.493 383.725C231.146 381.497 231.895 381.448 232.639 383.386ZM125.687 424.051C125.426 426.068 123.365 431.571 121.106 436.281C117.028 444.785 116.435 447.58 117.908 451.347C119.476 455.358 114.095 467.943 108.967 472.258C101.956 478.158 98.388 474.451 99.266 462.177C100.216 448.877 107.092 432.844 116.418 422.177C123.196 414.424 126.836 415.16 125.687 424.051ZM54.307 483.671C58.592 488.406 60.373 495.049 60.803 507.911C61.735 535.745 53.176 569.603 42.638 579.766C38.592 583.669 36.87 583.444 34.37 578.685C31.808 573.81 31.315 555.133 33.425 542.884C36.701 523.87 46.169 486.493 48.309 484.134C50.772 481.417 52.17 481.309 54.307 483.671Z" fill="#BA2525"/>
</svg>
